<svg width="35" height="28" viewBox="0 0 35 28" fill="none" xmlns="http://www.w3.org/2000/svg">
<path d="M35 3.31668C34.0253 4.74444 32.8296 5.96153 31.4128 6.96796C31.4268 7.23788 31.4338 7.54296 31.4338 7.8832C31.4338 9.77362 31.1539 11.6663 30.5942 13.5613C30.0345 15.4564 29.1795 17.2702 28.0293 19.0029C26.8791 20.7357 25.5089 22.2707 23.9189 23.608C22.3289 24.9454 20.4176 26.0117 18.185 26.807C15.9525 27.6023 13.5598 28 11.007 28C7.02284 28 3.35385 26.9407 0 24.8222C0.595269 24.8874 1.16618 24.9201 1.71274 24.9201C5.04115 24.9201 8.01396 23.9104 10.6312 21.8911C9.07927 21.8631 7.68943 21.3926 6.46165 20.4797C5.23387 19.5667 4.38894 18.4002 3.92686 16.98C4.38359 17.0657 4.83437 17.1085 5.2792 17.1085C5.91951 17.1085 6.54956 17.0263 7.16935 16.8618C5.51319 16.5351 4.13926 15.7227 3.04757 14.4247C1.95592 13.1266 1.41009 11.6284 1.41009 9.93002V9.84249C2.42665 10.3968 3.51097 10.6917 4.66305 10.7271C3.68195 10.0829 2.90409 9.24293 2.32946 8.2071C1.7548 7.17127 1.46746 6.05032 1.46746 4.84425C1.46746 3.57225 1.79111 2.38777 2.43841 1.29083C4.23946 3.46749 6.4218 5.20715 8.98544 6.5098C11.5491 7.81247 14.2994 8.53593 17.2364 8.68019C17.1112 8.16605 17.0484 7.62953 17.0482 7.07061C17.0482 5.11909 17.7494 3.45277 19.1519 2.07166C20.5544 0.690554 22.2465 0 24.228 0C26.3026 0 28.0501 0.743969 29.4705 2.23191C31.0933 1.91534 32.6127 1.34275 34.0289 0.514135C33.4833 2.20515 32.432 3.50965 30.875 4.42764C32.306 4.26016 33.681 3.88984 34.9999 3.31668H35Z" fill="#1D9BF0"/>
</svg>
